<svg width="207" height="61" viewBox="0 0 207 61" fill="none" xmlns="http://www.w3.org/2000/svg">
<path d="M197.253 3.33893C200.866 3.33893 203.831 6.02581 203.831 9.40929V52.2999C203.831 55.6336 200.92 58.3703 197.253 58.3703H9.27487C5.66199 58.3703 2.69618 55.6834 2.69618 52.2999V9.40929C2.69618 6.02581 5.60806 3.33893 9.27487 3.33893H197.253ZM197.253 0.851074H9.27487C4.15212 0.851074 0 4.68237 0 9.40929V52.2999C0 57.0268 4.15212 60.8581 9.27487 60.8581H197.307C202.429 60.8581 206.582 57.0268 206.582 52.2999V9.40929C206.528 4.68237 202.376 0.851074 197.253 0.851074Z" fill="white"/>
<path d="M45.5099 12.9519C46.8489 11.4641 49.0806 10.2739 50.8659 10.2739C51.1635 12.3568 50.2708 14.4397 48.9318 15.9275C47.5928 17.4153 45.5099 18.6055 43.427 18.4567C43.2782 16.5226 44.3197 14.2909 45.5099 12.9519ZM58.4536 36.4588C58.4536 36.4588 53.5439 34.6735 53.5439 29.3175C53.5439 24.8542 57.2633 22.6225 57.5609 22.4737C55.3292 19.3494 52.0561 18.903 50.8659 18.903C48.0391 18.6055 45.3611 20.5396 43.8733 20.5396C42.3856 20.5396 40.1539 18.903 37.7735 18.903C34.6491 18.903 31.8223 20.6884 30.3346 23.3664C27.0615 29.0199 29.4419 37.0539 32.5662 41.5173C34.054 43.7489 35.9881 46.1294 38.3686 45.9806C40.749 45.8318 41.4929 44.4928 44.3197 44.4928C47.1465 44.4928 47.8903 45.9806 50.4196 45.8318C52.9488 45.8318 54.4366 43.6002 55.9243 41.5173C57.7097 38.988 58.4536 36.6076 58.4536 36.4588Z" fill="white"/>
<path d="M78.7866 16.9177V17.4137H76.6045V23.8607H76.059V17.4137H73.8769V16.9177H78.7866Z" fill="white"/>
<path d="M83.2498 18.9019H83.7457V23.8611H83.2498V22.7205C82.8034 23.4644 82.0595 23.9603 81.1173 23.9603C80.423 23.9603 79.8279 23.7123 79.2823 23.2164C78.7864 22.7205 78.5385 22.0758 78.5385 21.3815C78.5385 20.6872 78.7864 20.0425 79.2823 19.5466C79.7783 19.0506 80.3734 18.8027 81.1173 18.8027C82.0595 18.8027 82.8034 19.249 83.2498 20.0425V18.9019ZM81.1669 23.514C81.762 23.514 82.2579 23.3156 82.6546 22.9189C83.0514 22.5221 83.2498 22.0262 83.2498 21.4311C83.2498 20.836 83.0514 20.3401 82.6546 19.9433C82.2579 19.5466 81.762 19.3482 81.1669 19.3482C80.5718 19.3482 80.0758 19.5466 79.6791 19.9433C79.2823 20.3401 79.084 20.836 79.084 21.4311C79.084 22.0262 79.2823 22.5221 79.6791 22.9189C80.0758 23.3156 80.5718 23.514 81.1669 23.514ZM81.4644 18.2076V18.158C81.4644 17.91 81.4644 17.8108 81.6132 17.7612C81.6132 17.7612 81.7124 17.6621 81.8116 17.6621L81.8612 17.6125C81.9603 17.5133 82.0595 17.4637 82.0595 17.2653C82.0595 17.0669 81.9603 16.9678 81.7124 16.9678C81.514 16.9678 81.3156 17.0669 81.2164 17.3149C81.1173 17.2653 80.9189 17.1661 80.8693 17.1661C81.0181 16.819 81.3156 16.6206 81.7124 16.6206C82.1091 16.6206 82.4563 16.819 82.4563 17.2653C82.4563 17.6125 82.2579 17.8108 82.1091 17.91C81.9107 18.0092 81.9108 18.0588 81.9108 18.2572V18.2076H81.4644Z" fill="white"/>
<path d="M85.9277 17.7621C85.9277 18.258 85.1342 18.258 85.1342 17.7621C85.1342 17.2662 85.9277 17.2662 85.9277 17.7621ZM85.283 23.862V18.9027H85.7789V23.862H85.283Z" fill="white"/>
<path d="M97.0861 20.7366V23.861H96.5902V20.7366C96.5902 19.7944 96.0447 19.2984 95.2512 19.2984C94.3585 19.2984 93.7634 19.8935 93.7634 21.1334V23.9105H93.2675V20.7862C93.2675 19.844 92.7715 19.348 91.9781 19.348C91.0854 19.348 90.4407 19.9927 90.4407 21.183V23.9601H89.9448V19.0009H90.4407V19.844C90.7878 19.1992 91.3334 18.9017 92.0277 18.9017C92.7219 18.9017 93.3171 19.2488 93.565 19.8935C93.9122 19.1992 94.5569 18.9017 95.2016 18.9017C96.3422 18.8025 97.0861 19.4968 97.0861 20.7366Z" fill="white"/>
<path d="M99.1193 17.7621C99.1193 18.258 98.3258 18.258 98.3258 17.7621C98.2762 17.2662 99.1193 17.2662 99.1193 17.7621ZM98.4746 23.862V18.9027H98.9705V23.862H98.4746Z" fill="white"/>
<path d="M104.475 19.5469C104.922 20.0428 105.17 20.6875 105.17 21.3818C105.17 21.4314 105.17 21.5802 105.17 21.6298H100.657C100.706 22.1753 100.954 22.6217 101.301 22.9688C101.698 23.316 102.194 23.4647 102.74 23.4647C103.533 23.4647 104.128 23.1176 104.475 22.5721L104.922 22.82C104.525 23.5143 103.731 23.9607 102.74 23.9607C101.996 23.9607 101.351 23.7127 100.855 23.2168C100.359 22.7208 100.111 22.1257 100.111 21.3323C100.111 20.5884 100.359 19.9932 100.805 19.4973C101.301 19.0014 101.897 18.7534 102.64 18.7534C103.434 18.803 104.029 19.051 104.475 19.5469ZM101.301 19.7949C100.905 20.142 100.706 20.5884 100.657 21.1339H104.624C104.575 20.5388 104.376 20.0924 103.979 19.7453C103.632 19.3981 103.186 19.2494 102.69 19.2494C102.145 19.2494 101.698 19.4477 101.301 19.7949ZM102.789 17.3153L102.045 18.2079H101.5L102.492 17.0177H103.037L104.029 18.2079H103.484L102.789 17.3153ZM101.599 16.7697C101.599 15.7779 102.244 15.5795 102.839 16.125C103.384 16.5714 103.583 16.4722 103.583 15.8771H103.979C103.979 16.373 103.88 16.6705 103.583 16.7697C103.335 16.8689 103.037 16.8193 102.74 16.5218C102.244 16.0754 101.996 16.125 101.996 16.7697H101.599Z" fill="white"/>
<path d="M110.526 20.7869V23.8616H110.03V20.7869C110.03 19.8446 109.484 19.2991 108.592 19.2991C107.55 19.2991 106.856 19.9934 106.856 21.2828V23.9112H106.36V18.952H106.856V19.8942C107.203 19.1999 107.798 18.8528 108.641 18.8528C109.782 18.8032 110.526 19.5967 110.526 20.7869Z" fill="white"/>
<path d="M119.006 19.5469C119.502 20.0428 119.75 20.6379 119.75 21.3818C119.75 22.1257 119.502 22.7208 119.006 23.2167C118.51 23.7126 117.915 23.9606 117.171 23.9606C116.229 23.9606 115.436 23.4647 115.039 22.7208V25.8451H114.543V18.9022H115.039V20.0428C115.436 19.2493 116.229 18.803 117.171 18.803C117.915 18.803 118.51 19.0509 119.006 19.5469ZM117.171 23.5143C117.766 23.5143 118.262 23.3159 118.659 22.9192C119.056 22.5224 119.254 22.0265 119.254 21.4314C119.254 20.8363 119.056 20.3403 118.659 19.9436C118.262 19.5469 117.766 19.3485 117.171 19.3485C116.576 19.3485 116.08 19.5469 115.684 19.9436C115.287 20.3403 115.088 20.8363 115.088 21.4314C115.088 22.0265 115.287 22.5224 115.684 22.9192C116.08 23.3159 116.576 23.5143 117.171 23.5143Z" fill="white"/>
<path d="M125.156 20.7869V23.8616H124.66V20.7869C124.66 19.8446 124.114 19.2991 123.222 19.2991C122.18 19.2991 121.486 19.9934 121.486 21.2828V23.9112H120.99V16.9683H121.486V19.8942C121.833 19.1999 122.428 18.8528 123.271 18.8528C124.412 18.8032 125.156 19.5967 125.156 20.7869Z" fill="white"/>
<path d="M126.892 16.9683H127.487L126.842 18.2081H126.346L126.892 16.9683ZM127.04 23.8616V18.9024H126.544V23.8616H127.04Z" fill="white"/>
<path d="M133.785 19.3982H132.297V22.6217C132.297 23.4648 132.743 23.5144 133.785 23.4152V23.8615C132.446 24.0599 131.801 23.7127 131.801 22.6217V19.3982H130.71V18.9023H131.801V17.6625L132.297 17.5137V18.9023H133.785V19.3982Z" fill="white"/>
<path d="M139.339 18.9022H139.835V23.8614H139.339V22.7208C138.893 23.4647 138.149 23.9606 137.207 23.9606C136.513 23.9606 135.917 23.7126 135.372 23.2167C134.876 22.7208 134.628 22.0761 134.628 21.3818C134.628 20.6875 134.876 20.0428 135.372 19.5469C135.868 19.0509 136.463 18.803 137.207 18.803C138.149 18.803 138.893 19.2493 139.339 20.0428V18.9022ZM137.207 23.5143C137.802 23.5143 138.298 23.3159 138.695 22.9192C139.091 22.5224 139.29 22.0265 139.29 21.4314C139.29 20.8363 139.091 20.3403 138.695 19.9436C138.298 19.5469 137.802 19.3485 137.207 19.3485C136.612 19.3485 136.116 19.5469 135.719 19.9436C135.322 20.3403 135.124 20.8363 135.124 21.4314C135.124 22.0265 135.322 22.5224 135.719 22.9192C136.116 23.3159 136.661 23.5143 137.207 23.5143ZM137.604 25.1012C137.604 25.5972 136.81 25.5972 136.81 25.1012C136.81 24.6053 137.653 24.6053 137.604 25.1012Z" fill="white"/>
<path d="M142.017 17.7621C142.017 18.258 141.224 18.258 141.224 17.7621C141.174 17.2662 142.017 17.2662 142.017 17.7621ZM141.372 23.862V18.9027H141.868V23.862H141.372Z" fill="white"/>
<path d="M83.9441 45.6829L82.9522 42.7073H76.3068L75.315 45.6829H71.7443L77.5963 29.0198H81.6628L87.5148 45.6829H83.9441ZM77.3483 39.6326H81.9108L79.6295 32.8384L77.3483 39.6326Z" fill="white"/>
<path d="M100.012 35.268C101.153 36.4583 101.748 37.946 101.748 39.7314C101.748 41.5167 101.153 43.0045 100.012 44.1947C98.8714 45.3849 97.5324 45.98 95.8958 45.98C94.2097 45.98 92.9203 45.3849 92.0276 44.2443V50.4434H88.9529V33.7803H92.0276V35.1688C92.9203 33.9786 94.2097 33.4331 95.8958 33.4331C97.5324 33.4331 98.8714 34.0778 100.012 35.268ZM95.3503 43.1037C96.2926 43.1037 97.0861 42.8061 97.7308 42.1614C98.3755 41.5167 98.673 40.7232 98.673 39.7314C98.673 38.7395 98.3755 37.946 97.7308 37.3509C97.1357 36.7062 96.3422 36.4087 95.3503 36.4087C94.4081 36.4087 93.6146 36.7062 92.9699 37.3509C92.3748 37.946 92.0276 38.7891 92.0276 39.7314C92.0276 40.6736 92.3252 41.5167 92.9699 42.1614C93.6146 42.7565 94.4081 43.1037 95.3503 43.1037Z" fill="white"/>
<path d="M114.89 35.268C116.031 36.4583 116.626 37.946 116.626 39.7314C116.626 41.5167 116.031 43.0045 114.89 44.1947C113.749 45.3849 112.41 45.98 110.774 45.98C109.088 45.98 107.798 45.3849 106.905 44.2443V50.4434H103.831V33.7803H106.905V35.1688C107.798 33.9786 109.088 33.4331 110.774 33.4331C112.41 33.4331 113.799 34.0778 114.89 35.268ZM110.228 43.1037C111.17 43.1037 111.964 42.8061 112.609 42.1614C113.253 41.5167 113.551 40.7232 113.551 39.7314C113.551 38.7395 113.253 37.946 112.609 37.3509C112.014 36.7062 111.22 36.4087 110.228 36.4087C109.286 36.4087 108.492 36.7062 107.848 37.3509C107.253 37.946 106.905 38.7891 106.905 39.7314C106.905 40.6736 107.203 41.5167 107.848 42.1614C108.492 42.7565 109.286 43.1037 110.228 43.1037Z" fill="white"/>
<path d="M123.519 38.4916C125.255 38.8387 127.536 39.6818 127.486 42.211C127.486 43.4012 127.04 44.3931 126.098 45.0378C125.205 45.6825 124.065 46.0296 122.676 46.0296C120.246 46.0296 118.56 45.0874 117.667 43.2029L120.345 41.7151C120.692 42.7565 121.486 43.2524 122.676 43.2524C123.767 43.2524 124.313 42.9053 124.313 42.211C124.313 41.5663 123.37 41.2191 122.13 40.9216C120.345 40.4753 118.163 39.7314 118.163 37.2517C118.163 36.0615 118.609 35.1688 119.452 34.4746C120.345 33.7803 121.387 33.4331 122.676 33.4331C124.61 33.4331 126.247 34.3258 127.189 35.9623L124.561 37.4005C124.164 36.607 123.519 36.2103 122.676 36.2103C121.883 36.2103 121.287 36.607 121.287 37.2021C121.337 37.7973 122.329 38.1444 123.519 38.4916Z" fill="white"/>
<path d="M135.917 36.706H133.239V41.6653C133.239 42.9547 134.182 42.9547 135.917 42.8555V45.6327C131.702 46.1286 130.164 44.8888 130.164 41.6157V36.6564H128.082V33.6809H130.164V31.3004L133.239 30.3582V33.6809H135.917V36.706Z" fill="white"/>
<path d="M143.951 46.0298C142.166 46.0298 140.678 45.4347 139.488 44.2445C138.298 43.0543 137.702 41.5169 137.702 39.7812C137.702 38.0454 138.298 36.5577 139.488 35.3178C140.678 34.1276 142.215 33.4829 143.951 33.4829C145.687 33.4829 147.224 34.078 148.414 35.3178C149.605 36.5081 150.249 37.9958 150.249 39.7812C150.249 41.5665 149.654 43.0543 148.414 44.2445C147.224 45.4347 145.736 46.0298 143.951 46.0298ZM143.951 43.0047C144.893 43.0047 145.637 42.7071 146.282 42.0624C146.927 41.4177 147.224 40.6738 147.224 39.682C147.224 38.7397 146.927 37.9462 146.282 37.3015C145.637 36.6568 144.893 36.3593 143.951 36.3593C143.009 36.3593 142.265 36.6568 141.62 37.3015C141.025 37.8967 140.728 38.6901 140.728 39.682C140.728 40.6242 141.025 41.4177 141.62 42.0624C142.265 42.7071 143.009 43.0047 143.951 43.0047Z" fill="white"/>
<path d="M155.506 35.8135C156.101 34.2761 157.49 33.5322 159.127 33.5322V36.9541C158.184 36.8549 157.341 37.0037 156.597 37.5492C155.853 38.0452 155.506 38.8386 155.506 39.9793V45.6824H152.432V33.7802H155.506V35.8135Z" fill="white"/>
<path d="M163.491 40.9712C163.887 42.459 165.028 43.2028 166.863 43.2028C168.053 43.2028 168.946 42.8061 169.541 42.0126L172.021 43.4508C170.83 45.137 169.095 45.98 166.813 45.98C164.83 45.98 163.243 45.3849 162.052 44.1947C160.862 43.0045 160.267 41.5167 160.267 39.6818C160.267 37.8964 160.862 36.4087 162.052 35.2184C163.243 34.0282 164.73 33.4331 166.565 33.4331C168.301 33.4331 169.739 34.0282 170.88 35.2184C172.021 36.4087 172.616 37.8964 172.616 39.6818C172.616 40.0785 172.566 40.4753 172.516 40.9216H163.491V40.9712ZM169.541 38.5907C169.194 36.9542 168.004 36.2103 166.565 36.2103C164.929 36.2103 163.788 37.103 163.441 38.5907H169.541Z" fill="white"/>
</svg>
