<svg width="234" height="61" viewBox="0 0 234 61" fill="none" xmlns="http://www.w3.org/2000/svg">
<path d="M224.825 3.3307C228.545 3.3307 231.52 6.35585 231.52 10.0257V51.4355C231.52 55.155 228.495 58.1305 224.825 58.1305H9.59346C5.9236 58.1305 2.89845 55.155 2.89845 51.4355V10.0257C2.89845 6.35585 5.9236 3.3307 9.59346 3.3307H224.825ZM224.825 0.851074H9.59346C4.53501 0.851074 0.418823 4.96726 0.418823 10.0257V51.4355C0.418823 56.494 4.53501 60.6102 9.59346 60.6102H224.825C229.884 60.6102 234 56.494 234 51.4355V10.0257C234 4.96726 229.884 0.851074 224.825 0.851074Z" fill="white"/>
<path d="M75.3039 17.1165V17.6124H73.1218V24.0594H72.5763V17.6124H70.3942V17.1165H75.3039Z" fill="white"/>
<path d="M79.7669 19.1006H80.2628V24.0599H79.7669V22.9192C79.3205 23.6631 78.5766 24.159 77.6344 24.159C76.9401 24.159 76.345 23.9111 75.7995 23.4152C75.3035 22.9192 75.0556 22.2745 75.0556 21.5802C75.0556 20.8859 75.3035 20.2412 75.7995 19.7453C76.2954 19.2494 76.8905 19.0014 77.6344 19.0014C78.5766 19.0014 79.3205 19.4477 79.7669 20.2412V19.1006ZM77.684 23.7127C78.2791 23.7127 78.775 23.5143 79.1718 23.1176C79.5685 22.7209 79.7669 22.2249 79.7669 21.6298C79.7669 21.0347 79.5685 20.5388 79.1718 20.142C78.775 19.7453 78.2791 19.5469 77.684 19.5469C77.0889 19.5469 76.5929 19.7453 76.1962 20.142C75.7995 20.5388 75.6011 21.0347 75.6011 21.6298C75.6011 22.2249 75.7995 22.7209 76.1962 23.1176C76.5929 23.5143 77.0889 23.7127 77.684 23.7127ZM77.9815 18.4063V18.3567C77.9815 18.1087 77.9815 18.0096 78.1303 17.96C78.1303 17.96 78.2295 17.8608 78.3287 17.8608L78.3783 17.8112C78.4775 17.712 78.5767 17.6624 78.5767 17.464C78.5767 17.2657 78.4775 17.1665 78.2295 17.1665C78.0311 17.1665 77.8328 17.2657 77.7336 17.5136C77.6344 17.464 77.436 17.3649 77.3864 17.3649C77.5352 17.0177 77.8328 16.8193 78.2295 16.8193C78.6262 16.8193 78.9734 17.0177 78.9734 17.464C78.9734 17.8112 78.775 18.0096 78.6262 18.1087C78.4279 18.2079 78.4279 18.2575 78.4279 18.4559V18.4063H77.9815Z" fill="white"/>
<path d="M82.445 17.9608C82.445 18.4567 81.6516 18.4567 81.6516 17.9608C81.6516 17.4649 82.445 17.4649 82.445 17.9608ZM81.8003 24.0607V19.1014H82.2963V24.0607H81.8003Z" fill="white"/>
<path d="M93.6035 20.9356V24.0599H93.1075V20.9356C93.1075 19.9933 92.562 19.4974 91.7685 19.4974C90.8759 19.4974 90.2808 20.0925 90.2808 21.3323V24.1095H89.7848V20.9852C89.7848 20.0429 89.2889 19.547 88.4954 19.547C87.6028 19.547 86.9581 20.1917 86.9581 21.3819V24.1591H86.4621V19.1999H86.9581V20.0429C87.3052 19.3982 87.8507 19.1007 88.545 19.1007C89.2393 19.1007 89.8344 19.4478 90.0824 20.0925C90.4295 19.3982 91.0742 19.1007 91.7189 19.1007C92.8596 19.0015 93.6035 19.6958 93.6035 20.9356Z" fill="white"/>
<path d="M95.6366 17.9608C95.6366 18.4567 94.8431 18.4567 94.8431 17.9608C94.7935 17.4649 95.6366 17.4649 95.6366 17.9608ZM94.9919 24.0607V19.1014H95.4878V24.0607H94.9919Z" fill="white"/>
<path d="M100.992 19.7456C101.439 20.2416 101.687 20.8863 101.687 21.5806C101.687 21.6302 101.687 21.7789 101.687 21.8285H97.1738C97.2234 22.3741 97.4714 22.8204 97.8185 23.1675C98.2153 23.5147 98.7112 23.6635 99.2567 23.6635C100.05 23.6635 100.645 23.3163 100.992 22.7708L101.439 23.0188C101.042 23.7131 100.249 24.1594 99.2567 24.1594C98.5128 24.1594 97.8681 23.9114 97.3722 23.4155C96.8763 22.9196 96.6283 22.3245 96.6283 21.531C96.6283 20.7871 96.8763 20.192 97.3226 19.6961C97.8185 19.2001 98.4137 18.9522 99.1576 18.9522C99.951 19.0018 100.546 19.2497 100.992 19.7456ZM97.8185 19.9936C97.4218 20.3408 97.2234 20.7871 97.1738 21.3326H101.141C101.092 20.7375 100.893 20.2912 100.497 19.944C100.149 19.5969 99.7031 19.4481 99.2071 19.4481C98.6616 19.4481 98.2153 19.6465 97.8185 19.9936ZM99.3063 17.514L98.5624 18.4066H98.0169L99.0088 17.2164H99.5543L100.546 18.4066H100.001L99.3063 17.514ZM98.1161 16.9685C98.1161 15.9766 98.7608 15.7782 99.3559 16.3238C99.9014 16.7701 100.1 16.6709 100.1 16.0758H100.497C100.497 16.5717 100.397 16.8693 100.1 16.9685C99.8518 17.0676 99.5543 17.0181 99.2567 16.7205C98.7608 16.2742 98.5128 16.3238 98.5128 16.9685H98.1161Z" fill="white"/>
<path d="M107.043 20.9856V24.0604H106.547V20.9856C106.547 20.0434 106.002 19.4979 105.109 19.4979C104.068 19.4979 103.373 20.1921 103.373 21.4816V24.11H102.877V19.1507H103.373V20.093C103.72 19.3987 104.316 19.0515 105.159 19.0515C106.299 19.0019 107.043 19.7954 107.043 20.9856Z" fill="white"/>
<path d="M115.523 19.7456C116.019 20.2415 116.267 20.8366 116.267 21.5805C116.267 22.3244 116.019 22.9195 115.523 23.4154C115.027 23.9114 114.432 24.1593 113.688 24.1593C112.746 24.1593 111.953 23.6634 111.556 22.9195V26.0439H111.06V19.1009H111.556V20.2415C111.953 19.448 112.746 19.0017 113.688 19.0017C114.432 19.0017 115.027 19.2497 115.523 19.7456ZM113.688 23.713C114.284 23.713 114.779 23.5146 115.176 23.1179C115.573 22.7212 115.771 22.2252 115.771 21.6301C115.771 21.035 115.573 20.5391 115.176 20.1423C114.779 19.7456 114.284 19.5472 113.688 19.5472C113.093 19.5472 112.597 19.7456 112.201 20.1423C111.804 20.5391 111.606 21.035 111.606 21.6301C111.606 22.2252 111.804 22.7212 112.201 23.1179C112.597 23.5146 113.093 23.713 113.688 23.713Z" fill="white"/>
<path d="M121.673 20.9856V24.0604H121.177V20.9856C121.177 20.0434 120.632 19.4978 119.739 19.4978C118.698 19.4978 118.003 20.1921 118.003 21.4815V24.11H117.507V17.167H118.003V20.093C118.35 19.3987 118.945 19.0515 119.789 19.0515C120.929 19.0019 121.673 19.7954 121.673 20.9856Z" fill="white"/>
<path d="M123.409 17.167H124.004L123.359 18.4068H122.863L123.409 17.167ZM123.557 24.0604V19.1011H123.062V24.0604H123.557Z" fill="white"/>
<path d="M130.302 19.5969H128.814V22.8204C128.814 23.6635 129.26 23.7131 130.302 23.6139V24.0603C128.963 24.2586 128.318 23.9115 128.318 22.8204V19.5969H127.227V19.101H128.318V17.8612L128.814 17.7124V19.101H130.302V19.5969Z" fill="white"/>
<path d="M135.856 19.1009H136.352V24.0602H135.856V22.9195C135.41 23.6634 134.666 24.1593 133.724 24.1593C133.03 24.1593 132.434 23.9114 131.889 23.4155C131.393 22.9195 131.145 22.2748 131.145 21.5805C131.145 20.8862 131.393 20.2415 131.889 19.7456C132.385 19.2497 132.98 19.0017 133.724 19.0017C134.666 19.0017 135.41 19.448 135.856 20.2415V19.1009ZM133.724 23.713C134.319 23.713 134.815 23.5146 135.212 23.1179C135.608 22.7212 135.807 22.2252 135.807 21.6301C135.807 21.035 135.608 20.5391 135.212 20.1423C134.815 19.7456 134.319 19.5472 133.724 19.5472C133.129 19.5472 132.633 19.7456 132.236 20.1423C131.839 20.5391 131.641 21.035 131.641 21.6301C131.641 22.2252 131.839 22.7212 132.236 23.1179C132.633 23.5146 133.178 23.713 133.724 23.713ZM134.121 25.3C134.121 25.7959 133.327 25.7959 133.327 25.3C133.327 24.804 134.17 24.804 134.121 25.3Z" fill="white"/>
<path d="M138.534 17.9608C138.534 18.4567 137.741 18.4567 137.741 17.9608C137.691 17.4649 138.534 17.4649 138.534 17.9608ZM137.889 24.0607V19.1014H138.385V24.0607H137.889Z" fill="white"/>
<path d="M86.1147 36.9041V38.1935C86.1147 40.5739 85.3708 42.5081 83.8334 43.9958C82.296 45.4836 80.3123 46.2275 77.9319 46.2275C75.3531 46.2275 73.2206 45.3844 71.5344 43.7479C69.8483 42.0617 69.0052 40.0284 69.0052 37.5984C69.0052 35.1683 69.8483 33.135 71.4848 31.4489C73.171 29.7628 75.2539 28.9197 77.7335 28.9197C80.8578 28.9197 83.5854 30.457 84.974 32.7879L82.1473 34.4245C81.3538 33.0855 79.6676 32.0936 77.6839 32.0936C76.097 32.0936 74.758 32.6391 73.7661 33.6806C72.7247 34.722 72.2287 36.0114 72.2287 37.5984C72.2287 39.1853 72.7743 40.4748 73.7661 41.5162C74.8075 42.5576 76.1961 43.0536 77.9319 43.0536C80.4611 43.0536 82.1969 41.8634 82.792 39.8796H77.7335V36.9537H86.1147V36.9041Z" fill="white"/>
<path d="M93.9504 46.2276C92.165 46.2276 90.6772 45.6325 89.487 44.4423C88.2968 43.252 87.7017 41.7147 87.7017 39.9789C87.7017 38.2432 88.2968 36.7554 89.487 35.5156C90.6772 34.3254 92.2146 33.6807 93.9504 33.6807C95.7357 33.6807 97.2235 34.2758 98.4137 35.5156C99.6039 36.7058 100.249 38.1936 100.249 39.9789C100.249 41.7643 99.6535 43.252 98.4137 44.4423C97.1739 45.6325 95.7357 46.2276 93.9504 46.2276ZM93.9504 43.2024C94.8926 43.2024 95.6365 42.9049 96.2812 42.2602C96.9259 41.6155 97.2235 40.8716 97.2235 39.8797C97.2235 38.9375 96.9259 38.144 96.2812 37.4993C95.6365 36.8546 94.8926 36.557 93.9504 36.557C93.0081 36.557 92.2642 36.8546 91.6195 37.4993C91.0244 38.0944 90.7268 38.8879 90.7268 39.8797C90.7268 40.822 91.0244 41.6155 91.6195 42.2602C92.2642 42.9049 93.0081 43.2024 93.9504 43.2024Z" fill="white"/>
<path d="M108.084 46.2276C106.299 46.2276 104.811 45.6325 103.621 44.4423C102.43 43.252 101.835 41.7147 101.835 39.9789C101.835 38.2432 102.43 36.7554 103.621 35.5156C104.811 34.3254 106.348 33.6807 108.084 33.6807C109.869 33.6807 111.357 34.2758 112.547 35.5156C113.737 36.7058 114.382 38.1936 114.382 39.9789C114.382 41.7643 113.787 43.252 112.547 44.4423C111.307 45.6325 109.869 46.2276 108.084 46.2276ZM108.084 43.2024C109.026 43.2024 109.77 42.9049 110.415 42.2602C111.059 41.6155 111.357 40.8716 111.357 39.8797C111.357 38.9375 111.059 38.144 110.415 37.4993C109.77 36.8546 109.026 36.557 108.084 36.557C107.142 36.557 106.398 36.8546 105.753 37.4993C105.158 38.0944 104.86 38.8879 104.86 39.8797C104.86 40.822 105.158 41.6155 105.753 42.2602C106.398 42.9049 107.142 43.2024 108.084 43.2024Z" fill="white"/>
<path d="M125.69 33.9783H128.665V45.2854C128.665 47.1203 128.07 48.5089 126.83 49.5008C125.64 50.4926 124.152 50.939 122.466 50.939C119.887 50.939 117.854 49.9471 116.813 48.013L119.441 46.5252C120.036 47.6658 121.078 48.2114 122.565 48.2114C124.5 48.2114 125.69 47.1699 125.69 45.2854V43.996C124.797 45.1862 123.508 45.7813 121.871 45.7813C120.185 45.7813 118.796 45.1862 117.656 43.996C116.515 42.8058 115.97 41.3676 115.97 39.6814C115.97 37.9953 116.565 36.5571 117.705 35.3669C118.846 34.1767 120.235 33.5815 121.921 33.5815C123.557 33.5815 124.847 34.1767 125.739 35.3669V33.9783H125.69ZM124.747 37.4498C124.152 36.8547 123.359 36.5075 122.367 36.5075C121.375 36.5075 120.582 36.8051 119.987 37.4498C119.391 38.0449 119.044 38.8384 119.044 39.7806C119.044 41.6651 120.433 43.0537 122.367 43.0537C124.301 43.0537 125.69 41.7147 125.69 39.7806C125.69 38.7888 125.392 38.0449 124.747 37.4498Z" fill="white"/>
<path d="M131.492 45.8806V28.5232H134.567V45.8806H131.492Z" fill="white"/>
<path d="M139.923 41.1692C140.319 42.657 141.46 43.4008 143.295 43.4008C144.485 43.4008 145.378 43.0041 145.973 42.2106L148.453 43.6488C147.262 45.335 145.527 46.178 143.245 46.178C141.262 46.178 139.675 45.5829 138.484 44.3927C137.294 43.2025 136.699 41.7147 136.699 39.8798C136.699 38.0944 137.294 36.6067 138.484 35.4164C139.675 34.2262 141.162 33.6311 142.997 33.6311C144.733 33.6311 146.171 34.2262 147.312 35.4164C148.453 36.6067 149.048 38.0944 149.048 39.8798C149.048 40.2765 148.998 40.6733 148.948 41.1196H139.923V41.1692ZM145.973 38.7887C145.626 37.1522 144.436 36.4083 142.997 36.4083C141.361 36.4083 140.22 37.301 139.873 38.7887H145.973Z" fill="white"/>
<path d="M163.479 29.2168C165.066 29.2168 166.455 29.7623 167.546 30.8534C168.637 31.9444 169.182 33.2338 169.182 34.8208C169.182 36.4077 168.637 37.7467 167.546 38.7882C166.455 39.8792 165.116 40.4247 163.479 40.4247H160.553V45.8799H157.28V29.2168H163.479ZM163.479 37.35C164.868 37.35 165.909 36.2589 165.909 34.8208C165.909 33.3826 164.868 32.2915 163.479 32.2915H160.553V37.35H163.479Z" fill="white"/>
<path d="M171.166 45.8806V28.5232H174.241V45.8806H171.166Z" fill="white"/>
<path d="M186.093 33.9782H189.168V45.8804H186.093V44.4919C185.151 45.6821 183.862 46.2276 182.225 46.2276C180.638 46.2276 179.25 45.6325 178.109 44.4423C176.968 43.252 176.423 41.7147 176.423 39.9789C176.423 38.2432 177.018 36.7554 178.109 35.5156C179.25 34.3254 180.589 33.6807 182.225 33.6807C183.911 33.6807 185.201 34.2758 186.093 35.4164V33.9782ZM182.771 43.3016C183.713 43.3016 184.506 43.0041 185.151 42.3594C185.796 41.7147 186.093 40.9212 186.093 39.9293C186.093 38.9375 185.796 38.144 185.151 37.5489C184.556 36.9042 183.762 36.6066 182.771 36.6066C181.779 36.6066 181.035 36.9042 180.39 37.5489C179.795 38.144 179.448 38.9871 179.448 39.9293C179.448 40.8716 179.745 41.7147 180.39 42.3594C181.035 42.9545 181.828 43.3016 182.771 43.3016Z" fill="white"/>
<path d="M199.731 33.9788H203.004L198.69 45.881C197.45 49.3029 195.466 50.7907 192.392 50.6419V47.7655C194.028 47.7655 194.921 47.1208 195.516 45.4842L190.656 33.9788H194.028L197.103 41.9632L199.731 33.9788Z" fill="white"/>
<path d="M29.1826 16.1254V46.0297C29.1826 46.3769 29.3314 46.6744 29.5298 46.9224L44.11 31.0527L29.5298 15.1831C29.3314 15.4807 29.1826 15.7782 29.1826 16.1254Z" fill="white"/>
<path d="M45.1514 32.1924L31.563 46.9214L49.3171 36.7053L45.1514 32.1924Z" fill="white"/>
<path d="M57.0535 29.9611L50.6065 26.2417L46.1431 31.1018L50.6065 35.9619L57.0535 32.2424C57.9462 31.7465 57.9462 30.4571 57.0535 29.9611Z" fill="white"/>
<path d="M31.563 15.2319L45.1514 30.0105L49.3171 25.4976L31.563 15.2319Z" fill="white"/>
</svg>
